<?xml version="1.0" standalone="no"?>
<!DOCTYPE svg PUBLIC "-//W3C//DTD SVG 20010904//EN"
 "http://www.w3.org/TR/2001/REC-SVG-20010904/DTD/svg10.dtd">
<svg version="1.0" xmlns="http://www.w3.org/2000/svg"
 width="320.000000pt" height="320.000000pt" viewBox="0 0 320.000000 320.000000"
 preserveAspectRatio="xMidYMid meet">

<g transform="translate(0.000000,320.000000) scale(0.100000,-0.100000)"
fill="#000000" stroke="none">
<path d="M0 1600 l0 -1600 1600 0 1600 0 0 1600 0 1600 -1600 0 -1600 0 0
-1600z m1075 1256 c108 -37 203 -94 292 -179 76 -73 170 -202 212 -294 l24
-52 31 62 c101 200 257 353 435 428 80 33 200 59 276 59 193 0 401 -101 529
-257 195 -236 264 -657 153 -933 -42 -104 -89 -171 -187 -270 -100 -101 -183
-163 -445 -330 -88 -56 -202 -133 -254 -173 -192 -146 -431 -398 -501 -528
l-32 -61 -29 53 c-81 147 -283 363 -471 504 -59 44 -191 132 -295 195 -239
146 -358 235 -458 342 -120 128 -182 243 -211 394 -28 148 -11 356 42 524 49
156 113 260 227 366 82 77 157 121 257 153 93 29 103 30 220 27 81 -3 123 -10
185 -30z"/>
</g>
</svg>
