<?xml version="1.0" encoding="UTF-8"?><svg id="a" xmlns="http://www.w3.org/2000/svg" viewBox="0 0 35 35"><g><path d="M4.14,14.32c.66-1.21,2.21-.98,3.45-.66,1.41,.36,2.45,1.54,3.51,2.24,1.38,.91,1.18,1.03,2.45,1.81,1.49,.93,1.94,.86,3.03,1.73,.62,.5,1.27,1.03,1.7,1.96,.15,.32,.89,1.92,.12,2.89-.42,.53-1.09,.62-1.13,.63-.96,.11-1.47-.67-3.44-2.06-.73-.52-1.31-.86-1.96-1.25-2.29-1.37-2.44-1.14-3.09-1.79-1.25-1.25-1.07-1.61-2.28-2.47-.85-.6-1.45-.67-2.17-1.58-.21-.26-.37-1.09-.18-1.44Z" style="fill:#fff;"/><path d="M17.08,25.27c-.69,0-1.2-.41-2.01-1.04-.38-.3-.85-.67-1.45-1.09-.73-.51-1.32-.87-1.94-1.24-1.07-.64-1.67-.93-2.07-1.12-.45-.22-.7-.34-1.08-.72-.56-.56-.85-.96-1.08-1.27-.3-.41-.51-.7-1.16-1.16-.28-.2-.53-.33-.76-.46-.49-.27-.96-.53-1.48-1.19-.28-.35-.48-1.32-.21-1.82h0c.87-1.59,3.03-1.04,3.84-.83,1.04,.27,1.89,.95,2.64,1.55,.33,.27,.65,.52,.96,.73,.7,.46,1.01,.73,1.29,.96,.28,.25,.53,.46,1.16,.84,.64,.39,1.08,.6,1.46,.79,.51,.24,.95,.45,1.59,.97,.59,.47,1.32,1.06,1.8,2.08,.63,1.36,.66,2.51,.08,3.25-.51,.63-1.28,.74-1.36,.75-.08,0-.15,.01-.22,.01ZM4.44,14.48c-.11,.2,0,.89,.15,1.07,.43,.55,.8,.75,1.27,1.01,.26,.14,.53,.29,.83,.5,.73,.52,1,.89,1.31,1.31,.23,.32,.49,.67,1.01,1.19,.3,.3,.46,.38,.89,.58,.41,.2,1.02,.49,2.12,1.15,.63,.38,1.24,.74,1.98,1.27,.62,.43,1.09,.81,1.48,1.11,.9,.71,1.22,.95,1.73,.89,0,0,.57-.07,.91-.5,.41-.51,.35-1.44-.16-2.53-.41-.88-1.05-1.39-1.61-1.84-.58-.47-.97-.65-1.46-.88-.4-.19-.86-.41-1.53-.82-.67-.42-.95-.65-1.24-.91-.27-.24-.56-.48-1.22-.91-.34-.22-.67-.49-1.02-.77-.73-.59-1.49-1.19-2.39-1.42-1.7-.43-2.64-.28-3.07,.5h0Z" style="fill:#030000;"/></g><g><path d="M2.3,25.89c0-.65,1.36-1.6,2.45-2.08,1.23-.54,2.34-.65,3.51-.75,1.52-.13,1.44,.07,2.81-.08,1.61-.18,1.9-.48,3.18-.47,.74,0,1.51,.02,2.35,.45,.29,.15,1.74,.88,1.72,2.03,0,.62-.44,1.07-.47,1.1-.63,.63-1.04,.77-3.27,.89-.83,.04-1.85-.3-2.55-.21-2.44,.31-2.42,.56-3.26,.46-1.62-.19-1.69-.24-3.05-.17-.96,.05-1.56,.44-2.6,.19-.3-.07-.84-.55-.83-1.36Z" style="fill:#fff;"/><path d="M3.8,27.68c-.23,0-.48-.03-.75-.09-.45-.11-1.1-.72-1.09-1.7,.02-1.01,1.92-2.07,2.65-2.39,1.31-.57,2.48-.68,3.62-.77,.77-.07,1.15-.05,1.48-.03,.35,.02,.65,.03,1.32-.05,.69-.08,1.13-.18,1.51-.26,.51-.12,.91-.22,1.71-.21,.7,0,1.57,.01,2.5,.49,1.24,.63,1.92,1.46,1.91,2.34,0,.73-.47,1.24-.57,1.33-.73,.73-1.25,.87-3.49,1-.43,.02-.9-.05-1.35-.12-.44-.07-.86-.14-1.17-.1-1.14,.14-1.74,.28-2.14,.37-.45,.1-.71,.16-1.2,.1l-.59-.07c-1.07-.13-1.27-.16-2.41-.1-.33,.02-.61,.08-.89,.14-.33,.07-.66,.14-1.05,.14Zm5.4-4.32c-.23,0-.51,.01-.92,.05-1.08,.09-2.2,.19-3.4,.72-1.24,.54-2.24,1.41-2.24,1.77h0c-.01,.67,.44,1,.56,1.03,.58,.14,1.01,.05,1.5-.05,.31-.06,.62-.13,1-.15,1.2-.06,1.43-.03,2.53,.1l.58,.07c.38,.05,.55,.01,.98-.09,.41-.09,1.02-.23,2.2-.38,.4-.05,.87,.02,1.36,.1,.42,.07,.85,.14,1.21,.11,2.17-.12,2.49-.25,3.04-.79,.01-.01,.36-.38,.37-.86,0-.59-.55-1.22-1.54-1.72-.79-.4-1.5-.41-2.2-.41h-.07c-.64,0-1.02,.08-1.48,.19-.4,.09-.86,.19-1.59,.28s-1.07,.07-1.42,.05c-.14,0-.29-.01-.48-.01Z" style="fill:#030000;"/></g><g><path d="M13.24,5.08c.6-.26,1.81,1.06,2.47,2.05,.74,1.12,1.04,2.2,1.34,3.33,.39,1.47,.18,1.43,.56,2.75,.45,1.56,.8,1.79,1.01,3.05,.12,.73,.24,1.49-.04,2.39-.1,.31-.57,1.86-1.7,2.05-.62,.1-1.13-.25-1.16-.28-.73-.51-.59-1.37-1.09-3.54-.19-.81-.37-1.4-.57-2.07-.72-2.35-.97-2.29-1.01-3.13-.09-1.63,.26-1.76-.04-3.1-.21-.94-.58-1.35-.51-2.42,.02-.31,.43-.95,.77-1.1Z" style="fill:#fff;"/><path d="M16.64,21.06c-.61,0-1.08-.32-1.13-.36-.62-.44-.73-1.06-.9-2.1-.08-.44-.17-.98-.32-1.64-.18-.8-.37-1.4-.57-2.05-.34-1.1-.57-1.67-.73-2.04-.18-.43-.28-.67-.3-1.17-.04-.73,0-1.18,.04-1.54,.05-.46,.08-.79-.08-1.49-.07-.3-.15-.55-.23-.78-.17-.49-.33-.96-.28-1.74,.03-.42,.51-1.18,.97-1.39l.14,.31-.14-.31c1.07-.48,2.81,2.07,2.89,2.18,.79,1.19,1.09,2.33,1.38,3.43,.2,.74,.24,1.12,.29,1.45,.04,.34,.08,.64,.27,1.29,.19,.66,.37,1.08,.52,1.44,.2,.48,.37,.9,.5,1.65,.11,.69,.25,1.55-.05,2.55-.41,1.33-1.11,2.14-1.97,2.28-.1,.02-.19,.02-.28,.02Zm-3.21-15.68s-.04,0-.05,0h0c-.22,.1-.55,.63-.56,.8-.04,.64,.09,1,.25,1.47,.09,.25,.18,.52,.26,.85,.18,.81,.14,1.23,.09,1.71-.04,.36-.08,.76-.04,1.44,.02,.39,.08,.54,.25,.95,.16,.39,.4,.97,.75,2.1,.2,.65,.39,1.27,.58,2.09,.16,.68,.25,1.23,.33,1.68,.18,1.03,.26,1.4,.63,1.66,0,0,.42,.29,.91,.22,.59-.1,1.1-.74,1.43-1.81,.26-.85,.14-1.58,.03-2.24-.11-.67-.26-1.04-.45-1.5-.16-.38-.34-.82-.54-1.51-.21-.7-.25-1.04-.3-1.39-.04-.33-.08-.67-.27-1.37-.28-1.05-.56-2.13-1.29-3.23-.78-1.18-1.7-1.94-1.99-1.94Z" style="fill:#030000;"/></g><g><path d="M32.84,32.75c-2.35-1.67-4.83-3.62-7.35-5.88-1.23-1.1-2.38-2.2-3.46-3.28" style="fill:#fff;"/><path d="M32.65,33.03c-2.56-1.82-5.04-3.81-7.38-5.9-1.18-1.06-2.35-2.17-3.47-3.3l.49-.48c1.11,1.12,2.27,2.22,3.44,3.27,2.31,2.08,4.78,4.05,7.32,5.85l-.4,.56Z" style="fill:#030000;"/></g><g><path d="M17.32,24.55c.45,.14,1.27,.69,2.22,.52,1.47-.26,3.12-1.96,3.73-3.54,.49-1.28,.02-2.11-.11-2.58-.56,.06-2.31,.33-3.84,1.78-1.57,1.49-1.92,3.27-2,3.82Z" style="fill:#fff;"/><path d="M19.18,25.45c-.65,0-1.22-.25-1.62-.43-.13-.06-.25-.11-.35-.14l-.28-.09,.04-.29c.14-.88,.59-2.58,2.11-4.01,1.48-1.4,3.17-1.77,4.04-1.87l.29-.03,.08,.28c.02,.07,.05,.14,.08,.23,.18,.51,.48,1.37,.02,2.56-.61,1.58-2.31,3.46-3.99,3.75-.14,.03-.28,.04-.42,.04Zm-1.48-1.11l.13,.06c.43,.19,1.01,.45,1.65,.34,1.27-.22,2.86-1.74,3.47-3.33,.37-.95,.14-1.6-.03-2.08-.83,.13-2.17,.52-3.37,1.65-1.23,1.16-1.68,2.51-1.85,3.35Z" style="fill:#030000;"/></g><g><path d="M2.33,19.85c-.2,.68,1.16,1.95,2.24,2.65,1.22,.79,2.39,1.1,3.62,1.42,1.6,.41,1.55,.18,2.99,.58,1.69,.48,1.94,.85,3.32,1.06,.79,.12,1.62,.24,2.59-.07,.34-.11,2.02-.64,2.21-1.87,.11-.67-.28-1.22-.3-1.26-.56-.78-1.49-.63-3.85-1.15-.88-.19-1.52-.39-2.25-.6-2.56-.76-2.49-1.03-3.4-1.07-1.77-.08-1.72-.12-3.16-.44-1.02-.22-1.33-.66-2.97-.21-.32,.09-.84,.24-1.04,.94Z" style="fill:#fff;"/><path d="M15.79,26.03c-.5,0-.95-.07-1.35-.13-.81-.13-1.26-.31-1.79-.52-.4-.16-.85-.35-1.57-.55-.71-.2-1.03-.24-1.4-.28-.36-.04-.77-.09-1.58-.3-1.2-.3-2.43-.62-3.72-1.46-.95-.62-2.67-2.05-2.38-3.04h0c.26-.9,.98-1.09,1.28-1.18,1.32-.36,1.86-.19,2.49,.02,.19,.06,.39,.13,.64,.18l.57,.12c.91,.2,1.07,.24,2.54,.3,.54,.02,.8,.13,1.26,.32,.41,.16,1.02,.41,2.22,.77,.7,.21,1.36,.4,2.23,.59,.72,.16,1.3,.25,1.78,.33,1.12,.18,1.8,.29,2.27,.95,.02,.03,.5,.69,.37,1.51-.15,.93-1.02,1.69-2.45,2.14-.5,.16-.97,.21-1.4,.21ZM2.65,19.95c-.1,.34,.81,1.43,2.1,2.27,1.2,.78,2.38,1.08,3.52,1.37,.76,.19,1.13,.24,1.49,.28,.39,.05,.75,.09,1.51,.3,.76,.21,1.23,.4,1.64,.57,.5,.2,.9,.37,1.64,.48,.71,.11,1.51,.24,2.44-.06,1.15-.36,1.87-.95,1.97-1.59,.09-.54-.24-1-.24-1-.29-.41-.7-.49-1.82-.68-.49-.08-1.09-.18-1.82-.34-.89-.2-1.56-.4-2.28-.61-1.23-.37-1.86-.62-2.28-.79-.45-.18-.61-.25-1.04-.27-1.53-.07-1.75-.12-2.66-.32l-.56-.12c-.27-.06-.5-.13-.71-.2-.56-.19-.97-.32-2.09-.01-.34,.09-.66,.22-.81,.71h0Z" style="fill:#030000;"/></g><g><path d="M21.39,2.32c-.65-.09-1.46,1.53-1.82,2.66-.41,1.29-.39,2.41-.37,3.59,.03,1.53,.23,1.43,.22,2.82,0,1.63-.28,1.95-.13,3.23,.09,.74,.19,1.51,.7,2.3,.18,.27,1.07,1.65,2.22,1.52,.63-.07,1.03-.55,1.05-.58,.56-.7,.19-1.49,.07-3.73-.04-.83-.03-1.46-.02-2.16,.04-2.48,.3-2.48,.11-3.31-.37-1.6-1.32-1.54-1.4-2.91-.06-.97,.39-1.51,.03-2.52-.1-.29-.31-.87-.68-.92Z" style="fill:#fff;"/><path d="M22.07,18.8c-.81,0-1.64-.59-2.35-1.67-.58-.89-.68-1.76-.76-2.46-.09-.76-.04-1.21,.02-1.73,.05-.4,.1-.84,.1-1.54,0-.68-.04-.98-.09-1.32-.05-.34-.11-.72-.13-1.49-.02-1.14-.05-2.33,.39-3.7,.04-.13,.96-3.08,2.19-2.9h0c.57,.08,.82,.77,.95,1.13,.25,.71,.16,1.21,.07,1.7-.05,.3-.1,.58-.08,.92,.03,.59,.24,.85,.53,1.2,.29,.35,.66,.79,.86,1.65,.11,.49,.08,.75,.03,1.22-.04,.4-.11,1.02-.13,2.18-.01,.67-.03,1.31,.02,2.14,.04,.68,.1,1.23,.15,1.68,.12,1.05,.18,1.69-.29,2.28-.05,.07-.53,.63-1.28,.71-.06,0-.12,.01-.19,.01Zm-.74-16.14c-.26,0-.98,1.02-1.43,2.43-.4,1.26-.38,2.39-.35,3.48,.01,.73,.07,1.07,.12,1.4,.06,.36,.11,.69,.1,1.43,0,.73-.06,1.2-.1,1.62-.06,.5-.1,.89-.02,1.58,.07,.66,.16,1.41,.65,2.16,.62,.95,1.28,1.42,1.89,1.36,.49-.06,.82-.46,.82-.46,.28-.35,.26-.73,.14-1.78-.05-.46-.11-1.02-.15-1.71-.05-.85-.03-1.5-.02-2.19,.02-1.19,.09-1.82,.14-2.24,.05-.44,.07-.61-.02-.99-.16-.7-.44-1.04-.71-1.37-.32-.38-.65-.78-.69-1.59-.02-.42,.04-.77,.09-1.08,.08-.46,.14-.82-.04-1.35-.21-.58-.34-.68-.4-.69h-.02Z" style="fill:#030000;"/></g><g><path d="M23.87,3.79c-.64-.16-1.61,1.36-2.1,2.45-.54,1.24-.65,2.36-.75,3.53-.13,1.53,.07,1.45-.08,2.83-.18,1.62-.48,1.91-.47,3.2,0,.74,.02,1.52,.45,2.37,.15,.29,.89,1.75,2.04,1.75,.63,0,1.07-.32,1.1-.35,.27-.25,.75-.48,.87-2.72,.05-.83-.19-1.75-.27-2.45-.32-2.55-.09-3.11-.19-3.96-.2-1.63-.4-1.79-.33-3.16,.05-.97,.55-1.46,.3-2.5-.07-.3-.21-.89-.57-.98Z" style="fill:#fff;"/><path d="M22.96,20.26c-1.19,0-1.98-1.21-2.34-1.93-.48-.94-.49-1.81-.49-2.52,0-.77,.1-1.21,.21-1.72,.09-.39,.19-.83,.26-1.52,.08-.68,.06-.98,.05-1.33-.02-.34-.03-.72,.03-1.49,.1-1.14,.2-2.32,.78-3.64,.13-.29,1.21-2.67,2.31-2.67,.06,0,.12,0,.18,.02h0c.56,.14,.74,.88,.82,1.24,.17,.72,.03,1.22-.11,1.69-.08,.29-.16,.56-.18,.9-.04,.85,.02,1.2,.12,1.79,.06,.33,.13,.73,.2,1.32,.04,.33,.03,.62,.02,.96-.02,.59-.04,1.39,.16,2.99,.03,.2,.06,.42,.1,.64,.1,.58,.21,1.24,.18,1.87-.11,2.04-.51,2.55-.92,2.9-.13,.12-.66,.49-1.39,.49h0Zm.8-16.14c-.28,0-1.07,.91-1.67,2.26-.53,1.21-.63,2.33-.72,3.42-.06,.73-.05,1.07-.03,1.4,.02,.36,.03,.7-.05,1.43-.08,.73-.19,1.19-.28,1.6-.11,.49-.2,.88-.19,1.56,0,.7,.01,1.42,.42,2.22,.24,.47,.88,1.56,1.73,1.56h0c.51,0,.88-.27,.88-.27l.06-.06c.22-.19,.58-.51,.69-2.42,.03-.55-.08-1.17-.17-1.71-.04-.24-.08-.46-.1-.67-.21-1.65-.19-2.49-.17-3.1,0-.32,.02-.58-.02-.86-.07-.57-.14-.96-.2-1.28-.11-.61-.18-1.02-.13-1.94,.02-.42,.12-.76,.21-1.06,.13-.45,.23-.8,.1-1.34-.15-.63-.28-.72-.33-.73,0,0-.02,0-.03,0Z" style="fill:#030000;"/></g><g><path d="M18.07,4.92c-.66,0-1.25,1.7-1.46,2.88-.24,1.33-.08,2.44,.1,3.61,.23,1.52,.41,1.39,.59,2.77,.21,1.62-.02,1.97,.3,3.22,.18,.72,.38,1.47,1,2.19,.21,.25,1.28,1.49,2.4,1.21,.61-.15,.95-.68,.97-.72,.47-.76,0-1.5-.41-3.7-.15-.82-.22-1.44-.3-2.14-.28-2.46-.02-2.5-.32-3.3-.58-1.54-1.51-1.35-1.77-2.7-.18-.95,.19-1.54-.3-2.5-.14-.27-.42-.82-.79-.82Z" style="fill:#fff;"/><path d="M20.66,21.18c-.75,0-1.56-.48-2.33-1.38-.68-.8-.9-1.65-1.07-2.33-.19-.74-.19-1.2-.2-1.72,0-.4-.01-.85-.1-1.54-.09-.68-.17-.97-.27-1.3-.09-.33-.2-.69-.32-1.46-.17-1.14-.35-2.31-.1-3.72,.02-.13,.58-3.16,1.79-3.16h0c.58,0,.91,.66,1.09,1.01,.34,.66,.31,1.17,.29,1.67-.01,.3-.03,.59,.04,.92,.11,.58,.35,.81,.69,1.12,.34,.31,.75,.7,1.06,1.53,.18,.47,.18,.73,.19,1.2,0,.41,.02,1.02,.15,2.17,.09,.76,.15,1.34,.3,2.12,.12,.67,.26,1.21,.36,1.65,.25,1.03,.4,1.65,0,2.3-.04,.07-.44,.69-1.18,.87-.14,.03-.27,.05-.41,.05Zm-2.6-15.92c-.26,0-.85,1.11-1.12,2.6-.23,1.3-.06,2.41,.1,3.5,.11,.72,.2,1.05,.3,1.37,.1,.35,.2,.68,.29,1.41,.09,.73,.1,1.2,.11,1.62,0,.5,.02,.9,.18,1.56,.17,.68,.35,1.38,.93,2.05,.34,.4,1.22,1.31,2.05,1.1,.48-.12,.75-.56,.76-.56,.24-.39,.16-.76-.09-1.78-.11-.45-.24-1-.37-1.68-.15-.8-.22-1.42-.3-2.08-.14-1.27-.15-1.9-.16-2.32,0-.44-.01-.61-.15-.98-.25-.67-.58-.98-.89-1.27-.37-.34-.74-.69-.89-1.49-.08-.41-.06-.77-.05-1.08,.02-.46,.04-.83-.22-1.33-.29-.57-.44-.64-.49-.64h0Z" style="fill:#030000;"/></g><g><path d="M9.08,8.67c-1.11,.64-.95,2.34-.58,3.57,.42,1.39,1.7,2.29,2.44,3.32,.96,1.34,1.07,1.13,1.91,2.37,.99,1.46,.94,1.9,1.85,2.95,.53,.6,1.08,1.23,2.03,1.62,.33,.14,1.95,.81,2.9,0,.51-.44,.58-1.12,.58-1.16,.08-.96-.73-1.44-2.2-3.36-.54-.71-.92-1.28-1.33-1.91-1.46-2.23-1.24-2.39-1.91-3.01-1.3-1.2-2.11-.56-3.01-1.74-.64-.83-.57-1.58-1.51-2.26-.27-.2-.81-.61-1.16-.41Z" style="fill:#fff;"/><path d="M18.42,23.24c-.54,0-1.15-.14-1.82-.42-1.04-.43-1.66-1.14-2.16-1.71-.54-.62-.77-1.05-1.03-1.55-.2-.38-.43-.81-.85-1.43-.41-.61-.63-.85-.89-1.12-.25-.27-.53-.57-1.02-1.25-.23-.33-.53-.65-.84-.98-.63-.67-1.34-1.43-1.64-2.44-.57-1.89-.29-3.37,.74-3.97h0c.53-.31,1.17,.16,1.51,.41,.66,.48,.89,.98,1.11,1.47,.14,.3,.26,.58,.49,.87,.39,.51,.74,.61,1.22,.75,.47,.14,1.06,.31,1.76,.94,.4,.37,.53,.61,.76,1.05,.2,.39,.51,.97,1.2,2.02,.42,.64,.78,1.19,1.32,1.89,.45,.58,.83,1.03,1.15,1.4,.74,.86,1.18,1.38,1.12,2.19-.02,.21-.13,.9-.69,1.39-.37,.32-.85,.47-1.43,.47ZM9.3,8.95s-.04,0-.05,.01h0c-.87,.5-.79,1.97-.43,3.18,.26,.85,.88,1.52,1.48,2.17,.33,.35,.64,.69,.9,1.05,.46,.64,.71,.91,.96,1.17,.27,.28,.52,.55,.96,1.21,.44,.65,.68,1.1,.89,1.5,.25,.48,.45,.86,.94,1.42,.5,.57,1.01,1.16,1.9,1.53,1.14,.47,2.03,.49,2.54,.06,.39-.34,.45-.87,.46-.93,.04-.49-.22-.82-.96-1.68-.33-.38-.72-.84-1.18-1.43-.55-.72-.94-1.31-1.34-1.92-.71-1.08-1.03-1.68-1.24-2.08-.22-.42-.31-.58-.62-.87-.57-.53-1.04-.66-1.48-.79-.51-.15-1.04-.3-1.57-.99-.27-.36-.43-.7-.57-1.01-.2-.44-.37-.82-.87-1.18-.45-.33-.65-.4-.74-.4Z" style="fill:#030000;"/></g></svg>