<?xml version="1.0" encoding="UTF-8"?><svg id="a" xmlns="http://www.w3.org/2000/svg" viewBox="0 0 463.47 316.78"><g><path d="M133.59,152.04c-1.06-.63-7.74-4.45-15.43-1.84-8.29,2.81-11.05,10.83-11.67,12.62-2.46,7.13-.34,13.33,.37,15.18,2.52-.37,5.8-1.28,9.01-3.48,2.44-1.67,5.96-4.09,6.3-7.65,.34-3.6-2.85-5.22-1.98-7.61,.99-2.7,5.98-3.17,7.9-3.35,7.15-.68,13.1,2.01,16.44,3.85,3.58,1.97,7.14,4.61,14.54,12.79,12.54,13.88,20.27,26.17,23.76,32.01,2.5,4.18,4.44,7.73,5.74,10.21-7.61-23.88-17.66-36.79-23.56-43.11-9.1-9.76-13.65-14.64-17.32-16.62-2.7-1.46-10.03-4.95-15.23-12.94-.13-.2-.22-.35-.25-.39-4.62-7.34-4.78-15.1-4.75-20.08,.04-7.41,.56-16.56,2.28-29.35,.81-6.03,1.42-9.42,1.98-16.11,.7-8.36,1.03-12.62,0-16.9-2-8.28-7.97-16.99-12.02-16.21-2.86,.55-4.47,5.81-4.87,9.39-1.28,11.38,8.61,14.89,10.76,28.89,.22,1.42-.39,7.42-1.61,19.43-1.31,12.86-2.12,16.86-1.38,23.43,.77,6.88,2.76,12.29,4.23,15.64-3.86-2.63-7.8-7.04-13.04-11.4-25.91-21.58-11.18-24.21-22.13-33.9-4.07-1.53-3.36,6.98-5.57,9.68-2.11,2.59-11.02,3.54-9.18,5.6,12.33,13.82,7.13-6.73,27.6,17.05,5.6,6.51,1.57,.48,12.22,9.8,6.47,5.67,6.39,6.05,9.62,8.8,3.17,2.7,5.65,5.03,7.23,6.57Z" style="fill:#85893d;"/><path d="M187.37,215.39c-1.79-3.4-3.71-6.81-5.71-10.14-6.67-11.14-14.61-21.84-23.6-31.79-7.08-7.83-10.56-10.52-14.19-12.51-5.31-2.93-10.57-4.17-15.66-3.69-4.02,.38-6.3,1.21-6.76,2.47-.2,.54,.04,1.05,.67,2.17,.71,1.27,1.6,2.85,1.39,5.1-.4,4.19-4.3,6.87-6.88,8.64-2.82,1.94-6.04,3.18-9.58,3.7l-1.07,.16-.39-1.01c-1.17-3.04-2.78-9.17-.39-16.11,2.36-6.83,6.68-11.49,12.51-13.46,3.64-1.23,7.06-1.14,9.87-.58-.7-.62-1.41-1.23-2.12-1.83-1.47-1.25-2.26-2.02-3.27-2.99-1.24-1.2-2.79-2.69-6.37-5.82-5.33-4.67-6.86-5.37-7.76-5.79-1.2-.55-1.79-.9-4.59-4.15-11.07-12.87-14.14-12.17-16.6-11.61-2.99,.68-5.52,.69-10.98-5.42-.69-.78-.63-1.54-.53-1.93,.38-1.49,2.26-2.16,4.87-3.09,1.82-.65,4.09-1.46,4.8-2.34,.63-.77,1.03-2.54,1.39-4.1,.58-2.55,1.14-4.97,2.89-5.91,.57-.31,1.53-.57,2.82-.09l.42,.25c4.69,4.15,5.08,7.27,5.49,10.58,.58,4.69,1.3,10.54,16.61,23.29,2.25,1.88,4.22,3.72,6.13,5.49,1.04,.97,2.02,1.89,2.97,2.74-1.23-3.69-2.07-7.46-2.5-11.28-.61-5.38-.21-8.97,.65-16.85,.22-1.99,.46-4.24,.73-6.87,1.14-11.19,1.81-17.84,1.62-19.09-.97-6.31-3.54-10.32-6.02-14.2-2.82-4.4-5.48-8.55-4.75-15.04,.11-.99,1.21-9.66,5.96-10.57,5.08-.98,11.47,8.45,13.59,17.22,1.11,4.57,.73,9.1,.04,17.33-.42,5.03-.88,8.26-1.41,12.01-.18,1.29-.38,2.65-.58,4.18-1.49,11.13-2.21,20.4-2.27,29.18-.03,4.2-.08,12.02,4.54,19.35l.24,.38c4.65,7.15,11.04,10.53,14.11,12.15l.62,.33c3.86,2.08,8.47,7.02,17.65,16.87,10.06,10.79,18.09,25.46,23.88,43.64l-2.49,1.04Zm-47.63-59.28c1.81,.64,3.63,1.46,5.44,2.46,3.88,2.13,7.56,4.96,14.89,13.07,7.97,8.82,15.12,18.22,21.31,27.99-4.82-10.76-10.63-19.82-17.37-27.05-9-9.65-13.5-14.48-16.97-16.35l-.6-.32c-3.02-1.6-10.08-5.34-15.12-13.07l-.27-.43c-5.03-7.99-4.97-16.64-4.95-20.79,.05-8.9,.78-18.28,2.29-29.53,.21-1.54,.4-2.9,.58-4.2,.52-3.7,.98-6.9,1.39-11.85,.71-8.55,.99-12.49,.03-16.47-2.01-8.32-7.69-15.73-10.44-15.2-1.81,.35-3.37,4.53-3.78,8.21-.62,5.54,1.57,8.96,4.34,13.28,2.51,3.92,5.36,8.37,6.42,15.25,.24,1.58-.29,6.86-1.58,19.6-.29,2.81-.53,5.08-.75,7.07-.84,7.67-1.22,11.17-.65,16.25,.58,5.2,1.97,10.33,4.12,15.24l1.89,4.33-3.9-2.66c-2.3-1.57-4.54-3.66-7.13-6.08-1.88-1.75-3.81-3.56-6.01-5.39-16.13-13.44-16.93-19.87-17.57-25.04-.38-3.09-.66-5.33-4.38-8.7-.14-.03-.28-.04-.37,0-.67,.36-1.18,2.62-1.53,4.12-.44,1.94-.9,3.95-1.93,5.21-1.19,1.46-3.63,2.34-5.99,3.18-.89,.32-2.13,.76-2.81,1.12,4.48,4.9,6.02,4.56,7.94,4.13,4.03-.91,8.02-.58,19.25,12.49,2.52,2.93,2.88,3.09,3.66,3.45,1.11,.51,2.79,1.28,8.42,6.21,3.63,3.17,5.2,4.69,6.46,5.91,.97,.94,1.74,1.68,3.14,2.88,2.5,2.13,4.96,4.36,7.3,6.63l5.21,5.04Zm-16.06-5.46c-1.6,0-3.31,.23-5.08,.83-5.01,1.7-8.75,5.77-10.82,11.78-1.86,5.41-.97,10.29-.02,13.21,2.69-.54,5.16-1.57,7.35-3.07,2.29-1.57,5.43-3.73,5.71-6.66,.14-1.4-.44-2.43-1.05-3.52-.7-1.25-1.5-2.67-.85-4.43,1.28-3.51,6.72-4.02,9.05-4.24,2.65-.25,5.33-.08,8.04,.5l-3.11-1.85c-1.22-.72-4.75-2.55-9.22-2.55Z" style="fill:#050001;"/></g><g><path d="M351.93,296.83c-.82,0-1.7-.06-2.64-.18l-1.45-.2,.3-1.43c1.91-9.03,1.83-18.06-.25-26.84-1.14-4.81-8.48-17.86-21.04-27.64-6.58-5.12-13.22-9.3-33.47-12.49-23.23-3.67-43.87-5.06-44.08-5.07-6.48-.43-11.17-.63-14.94-.78-8.47-.35-11.64-.48-16.94-2.84-17.11-7.63-24.82-23.03-26.2-26.03-8.01-17.57-10.87-29.9-10.9-30.03-1.34-7.71-6.07-17.67-10.55-22.28-2.88-2.96-13.15-8.23-17.45-8.94-13.24-2.2-21.21,1.61-24.61,3.24-1.35,.65-1.96,.94-2.71,.64l-.56-.23-.27-.63c-.92-2.59,8.29-6.48,8.39-6.51l1.64-.61c1.64-.61,3.32-1.25,6.36-2.23,2.46-.8,3.39-1.47,4.55-2.67,2.12-2.2,2.74-3.54,3.14-5.25,1.54-6.5,6.77-10.69,10.98-14.05,5.61-4.49,11.72-7.11,18.16-7.78,10.06-1.04,17.56,3.15,25.52,7.58,7.21,4.02,13.72,9.25,19.38,15.56,1.27-1.45,2.38-3.02,3.31-4.68,6.62-11.9,2.24-25.92-2.84-42.15-4.39-14.03-6.6-21.08-11.75-26.31-2.34-2.37-4.23-5.14-6.06-7.81-2.04-2.98-3.96-5.79-6.45-8.12-1.36-1.27-2.07-2.64-2.14-4.09-.1-2.09,1.2-4.3,3.16-5.38,2.36-1.3,4.79-.43,8.47,.89,3.99,1.43,6.19,2.22,7.81,4.38,1.52,2.03,1.98,4.31,2.02,6.21,.47-.22,.96-.4,1.45-.55,3.2-.97,7.93-.75,10.75,2.02,2.47,2.43,2.44,5.89,2.4,9.56-.03,3.38-.14,6.83-.31,10.3,.58-.59,1.23-1.11,1.95-1.55,5.18-3.19,11.85-1.13,14.83,2.79,2.13,2.79,1.94,5.98,1.7,10.01-.21,3.45-.9,6.87-2.08,10.21,1.43-.72,2.92-1.32,4.45-1.8,3.8-1.17,7.08-2.19,10.45-.75,4.56,1.95,7.47,7.55,6.62,12.76-.71,4.38-3.68,7.01-5.53,8.26,1.14,1.58,2.4,3.09,3.76,4.5,1.47,1.52,2.34,2.2,3.12,2.8,.73,.57,1.43,1.1,2.35,2.14,4.4,4.92,4.62,7.61,4.77,9.58l.02,.27-2.7,.23-.02-.29c-.13-1.67-.3-3.75-4.09-7.99-.76-.85-1.3-1.27-1.99-1.8-.81-.62-1.81-1.4-3.42-3.07-1.8-1.87-3.44-3.9-4.87-6.05l-.86-1.28,1.38-.69c.47-.24,4.66-2.45,5.4-7.06,.64-3.96-1.61-8.37-5.01-9.83-2.46-1.05-5.03-.26-8.58,.84-2.58,.8-5.03,2-7.27,3.56l-4.18,2.91,2.17-4.61c1.99-4.21,3.13-8.6,3.4-13.04,.25-4.08,.3-6.3-1.14-8.21-2.22-2.92-7.38-4.51-11.25-2.13-1.92,1.19-3.26,3.17-3.77,5.47-.07,.9-.14,1.81-.22,2.71l-2.71-.06c-.05-1.04,.04-2.06,.23-3.04,.41-5.46,.64-10.89,.69-16.18,.04-4.07-.11-6.15-1.59-7.61-1.94-1.91-5.53-2.13-8.06-1.36-1.06,.32-2.06,.85-2.96,1.56l-2.8,2.2,.63-3.51c.28-1.55,.48-4.51-1.29-6.88-1.13-1.51-2.83-2.12-6.55-3.46-3.44-1.23-5.01-1.75-6.25-1.07-1.03,.57-1.81,1.83-1.76,2.87,.05,1.09,.97,1.94,1.27,2.23,2.72,2.55,4.82,5.61,6.85,8.58,1.76,2.58,3.58,5.24,5.75,7.44,5.62,5.7,7.89,12.95,12.41,27.4,5.27,16.84,9.82,31.37,2.63,44.29-1.27,2.29-2.86,4.42-4.73,6.33l-1.03,1.06-.97-1.12c-5.68-6.58-12.29-12-19.65-16.1-7.9-4.4-14.73-8.2-23.92-7.25-5.91,.61-11.55,3.03-16.75,7.2-4.08,3.27-8.71,6.97-10.03,12.56-.49,2.07-1.3,3.88-3.82,6.5-1.42,1.48-2.69,2.41-5.67,3.37-.82,.26-1.54,.5-2.18,.72,3.78-.48,8.3-.52,13.56,.36,4.87,.81,15.68,6.35,18.95,9.72,4.88,5.02,9.83,15.41,11.27,23.63,.01,.05,2.82,12.14,10.71,29.43,3.59,7.88,12.25,19.07,24.83,24.68,4.82,2.15,7.4,2.26,15.94,2.6,3.79,.15,8.5,.35,15.01,.78v.17c5.51-.19,32.32,3.04,44.32,4.93,20.89,3.3,27.82,7.66,34.71,13.03,13.86,10.79,20.92,24.54,22.01,29.15,2.06,8.69,2.25,17.62,.56,26.54,3.86,.21,6.15-1.05,7.21-1.88,5.22-4.1,3.38-13.72,2.78-16.89-.71-3.72-2.14-7.26-4.27-10.52l-6.71-10.31,8.79,8.61c4.65,4.55,11.34,5.91,15.22,3.1,2.53-1.82,3.76-5.47,3.47-10.27-.35-5.74-3.95-9.52-5.48-10.88l-2.61-2.32,19.47-.31c-3.49-3.34-7.25-6.41-11.2-9.17-8.4-5.86-14.85-8.27-21.69-10.82-5.72-2.14-11.64-4.35-19.26-8.67-1.02-.58-1.18-.69-5.06-3.63-3.13-2.36-8.73-6.58-19.24-14.42-22.14-16.5-22.6-16.9-24.52-18.57l1.78-2.05c1.86,1.62,2.3,2,24.36,18.44,10.52,7.84,16.12,12.07,19.26,14.43,3.86,2.91,3.9,2.94,4.77,3.43,7.44,4.22,13.25,6.39,18.87,8.49,7,2.61,13.61,5.08,22.29,11.14,4.97,3.47,9.63,7.42,13.87,11.75l2.2,2.25-19.27,.3c1.84,2.27,3.9,5.8,4.18,10.42,.35,5.76-1.28,10.24-4.59,12.63-3.7,2.67-9.04,2.58-13.86,.13,.85,2.03,1.49,4.13,1.9,6.29,.68,3.57,2.74,14.41-3.77,19.53-1.27,1-3.87,2.48-8.05,2.48Z" style="fill:#050001;"/><path d="M241,192.46c-4.34,0-8.56-1.4-12.23-4.07-3.85-2.79-5.94-6.28-7.01-8.71l2.48-1.1c.94,2.13,2.77,5.17,6.13,7.61,3.33,2.42,7.14,3.65,11.07,3.55,5.85-.14,9.48-2.6,11.5-4.64,5.04-5.08,4.6-11.88,4.46-13.2l2.66-.48c.43,1.68,2.26,7.4,7.91,10.55,3.63,2.02,7.22,2.58,10.65,1.67,6.22-1.65,8.75-7.39,9.02-8.04,1.45-3.51,1.05-6.8,.69-8.46l-2-9.03,4.51,8.08c4.06,7.27,11.19,11.44,17.37,10.15,3.2-.67,6.11-2.69,7.79-5.41,2-3.24,2.19-7.25,.56-11.9-1.26-3.58-3.52-6.01-5.45-7.53-.29-.21-.57-.42-.85-.64l1.6-2.19c.29,.2,.59,.43,.9,.67,8.74,6.41,18.4,10.18,27.99,10.93l.21,.02c4.62,.36,16.87,1.31,19.56-4.4,1.81-3.84-.19-8.86-1.44-10.16-3.78-3.91-7.43-6.43-10.53-8.2-1.72-.83-3.43-1.71-5.12-2.63-1.28-.63-2.23-1.12-2.9-1.67l1.55-2.22c.86,.51,1.73,1,2.6,1.48,.17,.09,.35,.17,.54,.26,1.25,.61,2.79,1.36,4.52,2.35,6.84,3.29,13.9,5.76,21.09,7.37,8.33,1.87,15.27,2.23,20.61,1.08,3.24-.7,6.37-1.8,9.34-3.3-24.1-5.78-24.02-6.13-23.67-7.75q.24-1.13,7.18-1.86c4.31-.46,10.22-1.08,12.63-1.72,31.05-8.29,47.66-15.37,53.86-22.96,2.89-3.53,3.33-5.95,1.57-8.61-.59-.89-2.52-1.68-5.55-1.42-5.96,.51-10.21,2.31-13.02,3.5-.61,.26-1.14,.48-1.6,.66-.85,.32-1.75,.62-2.83,.93-1.13,.33-2.46,.73-3.97,1.18-9.85,2.97-26.34,7.95-43.07,9.45-11.87,1.06-17.16,.34-24.49-.66-7.38-1-16.56-2.25-36.48-2.39-12.46-.09-27.59,.5-45.5,5.51-14.88,4.16-20.42,8.22-24.17,13.05-6.11,7.87-6.97,17.26-6.62,23.74l-2.71,.15c-.38-6.95,.56-17.02,7.18-25.55,4.08-5.25,9.99-9.64,25.58-14,18.24-5.1,33.63-5.69,46.25-5.61,20.1,.14,29.38,1.4,36.83,2.42,7.15,.97,12.32,1.68,23.88,.64,16.46-1.48,32.78-6.4,42.53-9.34,1.52-.46,2.87-.87,4-1.19,.89-.26,1.75-.53,2.61-.86,.44-.17,.94-.38,1.51-.62,2.79-1.18,7.45-3.16,13.84-3.7,3.75-.32,6.75,.66,8.04,2.62,3.14,4.75,.72,8.81-1.74,11.82-6.67,8.16-23.2,15.3-55.26,23.86-2.61,.7-8.4,1.31-13.04,1.8l-.16,.02c3.7,1,9.94,2.58,20.38,5.07l3.18,.76-2.79,1.71c-4.1,2.52-8.53,4.31-13.18,5.31-5.81,1.25-12.93,.9-21.77-1.08-3.77-.85-7.51-1.92-11.21-3.22,.66,.61,1.32,1.26,1.99,1.95,1.97,2.04,4.3,8.2,1.94,13.2-3.49,7.4-16.62,6.38-22.22,5.94l-.2-.02c-7.55-.59-15.12-2.94-22.28-6.9,.32,.64,.61,1.33,.86,2.05,1.92,5.47,1.65,10.26-.81,14.23-2.06,3.34-5.63,5.82-9.54,6.64-5.99,1.25-12.65-1.68-17.42-7.32-.12,1.54-.47,3.23-1.19,4.96-.52,1.27-3.51,7.68-10.83,9.62-4.15,1.1-8.41,.45-12.67-1.92-3.29-1.84-5.47-4.36-6.89-6.72-.59,2.92-1.94,6.4-4.9,9.38-2.37,2.39-6.61,5.28-13.36,5.44-.17,0-.33,0-.5,0Z" style="fill:#050001;"/></g><path d="M164.23,119.17c-.29,0-.6-.03-.93-.1-.94-.21-1.82-.76-2.49-1.54-.32-.38-.28-.95,.1-1.27,.38-.32,.95-.28,1.27,.1,.24,.28,.76,.78,1.51,.95,.76,.18,1.38-.08,1.67-.2,.96-.4,1.54-1.19,1.8-1.63,.26-.43,.82-.57,1.24-.31,.43,.26,.57,.81,.31,1.24-.65,1.08-1.59,1.92-2.65,2.37-.29,.12-.96,.4-1.84,.4Z" style="fill:#050001;"/><g><g><path d="M86.12,46.09c-.37,2.05,3.56,2.68,5.69,7.16,1.79,3.77-.12,5.18,1.26,9.69,1.63,5.3,4.82,5.19,6.53,9.9,2.39,6.61-1.66,13.05-1.05,13.27,.62,.23,4.82-6.43,6.53-15.59,.92-4.93,2.27-12.78-1.9-20.01-1.08-1.88-3.75-6.5-8.64-7.37-3.66-.66-8.05,.89-8.42,2.95Z" style="fill:#fff;"/><path d="M86.26,46.12c-.14,1.04,.93,1.73,1.73,2.37,2.73,1.96,5.22,4.59,5.49,8.25-.13,4.48,.92,8.04,4.02,10.97,.75,.8,1.5,1.77,2.05,2.82,2.16,4.13,1.47,8.98,.07,13.19-.12,.37-.65,1.87-.7,2.23-.03,.02,.08,.05-.13-.21-.3-.19-.43,.1-.12-.26,3.53-5.22,4.74-11.85,5.63-18.02,.85-6.28,.21-12.45-3.17-17.79-2.03-3.54-5.24-6.53-9.61-6.22-1.9,.1-4.59,.67-5.27,2.67h0Zm-.27-.05c.72-2.28,3.41-2.87,5.45-3.37,4.57-1.08,9.44,1.71,11.88,5.54,4.17,5.5,4.81,13.12,3.51,19.6-1.22,6.61-3.36,13.48-7.88,18.61-.53,.33-.99-.14-.9-.58,.1-.63,.6-1.8,.79-2.4,1.83-4.82,1.17-11-2.95-14.16-1.67-1.43-3.32-3.54-3.88-5.77-.77-2.1-.56-4.71-.24-6.79,.3-3-1.67-6.07-4.02-7.97-.77-.72-1.98-1.47-1.77-2.71h0Z" style="fill:#050001;"/></g><g><path d="M51.35,104.34c1.06-.87,3.77,2.96,9.69,5.26,7.82,3.05,13.01,.22,15.16,3.58,1.24,1.94,.69,4.7-.42,6.32-2.56,3.72-9.21,3.04-13.06,1.47-4.48-1.82-6.7-5.47-8.64-8.64-1.42-2.32-3.86-7.08-2.74-8Z" style="fill:#fff;"/><path d="M51.27,104.24c.39-.3,.87-.11,1.17,.04,2.14,1.29,4.29,2.69,6.65,3.5,4,1.47,7.94,2.26,12.16,2.76,1.42,.22,3.04,.37,4.37,1.38,2.51,2.19,2.14,6.11,.28,8.63-4.28,4.76-12.81,3.19-17.44-.44-4.2-3.63-5.91-8.62-7.36-13.66-.12-.73-.43-1.59,.18-2.22h0Zm.17,.21c-.39,.45-.16,1.27,.04,1.91,.72,2.01,2.03,3.77,3.32,5.43,3.36,4.53,6.83,8.35,12.63,9.06,2.6,.35,5.46,.34,7.37-1.3,1.81-1.6,2.49-5.35,.3-6.93-2.4-1.3-5.58-.16-8.31-.47-4.58-.14-8.7-2.57-11.95-5.61-.9-.64-2.29-2.41-3.39-2.09h0Z" style="fill:#050001;"/></g><g><path d="M47.32,54.32c-1,.95-3.97-2.68-10.04-4.56-8.02-2.48-12.99,.71-15.38-2.49-1.38-1.84-1.02-4.64-.03-6.33,2.28-3.89,8.97-3.69,12.92-2.4,4.6,1.5,7.07,4.98,9.23,8,1.58,2.21,4.35,6.79,3.3,7.79Z" style="fill:#fff;"/><path d="M47.42,54.42c-.37,.33-.86,.17-1.17,.04-2.23-1.13-4.47-2.37-6.88-3.02-4.1-1.18-8.08-1.69-12.33-1.89-1.43-.12-3.06-.16-4.45-1.06-2.66-2.01-2.57-5.94-.89-8.59,3.93-5.05,12.56-4.09,17.43-.81,4.45,3.32,6.51,8.18,8.32,13.1,.17,.72,.54,1.56-.02,2.23h0Zm-.19-.2c.35-.48,.07-1.28-.17-1.9-.86-1.95-2.3-3.62-3.7-5.18-3.67-4.28-7.4-7.85-13.24-8.14-2.62-.16-5.47,.05-7.25,1.82-1.69,1.72-2.1,5.52,.2,6.93,2.49,1.13,5.58-.23,8.32-.12,4.57-.19,8.86,1.94,12.32,4.75,.94,.57,2.46,2.24,3.53,1.85h0Z" style="fill:#050001;"/></g><g><path d="M49.55,56.93c1.41-1.23,5.75-4.7,11.58-4.42,6.57,.31,10.73,5.17,13.69,8.63,1.5,1.76,5.99,7.16,6.95,15.59,.33,2.93,1.11,10.87-4.21,18.32-5.57,7.79-13.9,9.55-15.8,9.9,10.05,5.55,20.62,6.73,26.12,1.9,4.4-3.87,4.06-10.79,3.37-24.64-.42-8.57-.81-14.91-4.63-22.12-2.83-5.33-6.21-8.63-10.32-12.64-4.86-4.74-7.4-7.15-11.58-7.79-.94-.14-7-.97-11.58,3.37-3.61,3.42-4.95,8.78-3.58,13.9Z" style="fill:#fff;"/><path d="M49.59,56.8c4.96-5.44,14-6.69,20-2.1,5.84,4.38,10.6,10.49,12.57,17.6,1.92,7.09,1.34,15.09-2.65,21.37-3.87,6.34-10.62,10.37-17.66,11.7l.13-.79c4.83,2.67,10.23,4.56,15.72,4.71,10.54,.14,13.36-6.2,12.83-15.74-.43-8.17-.41-16.87-2.14-24.74-1.79-8.07-6.94-14.65-12.85-20.26-3.77-3.73-7.44-8.2-13.15-8.01-8.84-.43-14.47,8.01-12.78,16.27h0Zm-.08,.26c-3.33-8.8,3.34-18.61,12.84-18.57,6.15-.52,10.98,4.29,15.02,8.16,2.04,1.91,4.08,3.9,5.96,6.09,10.13,11.05,9.24,26.9,9.47,40.8,.99,20.83-17.53,19.36-31.24,11.78l-1.04-.56c7.28-1.09,14.05-5.57,17.44-11.98,4.81-9.05,3.38-20.77-2.49-29.01-6.78-9.75-15.34-14.54-25.97-6.7h0Z" style="fill:#050001;"/></g><g><path d="M49.42,59.27c-1.88-.72-6.22-2.08-11.58-1.05-1.78,.34-7.27,1.48-11.37,6.32-3.18,3.76-3.86,7.78-4.42,11.16-.58,3.46-1.14,6.83,.21,10.53,1.94,5.28,6.67,8.15,10.95,10.74,6.41,3.88,8.75,2.92,11.37,6.53,1.98,2.72,1.63,4.61,4.21,7.79,2.06,2.54,4.46,4.01,6.11,4.84-6.44,.05-11.75-.7-15.59-1.47-8.31-1.67-13.94-2.8-17.27-7.37-2.64-3.63-.68-5.1-3.16-11.58-3.58-9.35-8.8-9.27-9.9-16.01-.82-5.04,1.41-9.28,4.84-15.8,2.65-5.03,4.39-8.34,8.21-10.11,3.76-1.74,7.35-.99,13.06,.21,3.43,.72,8.52,2.15,14.32,5.26Z" style="fill:#fff;"/><path d="M49.54,59.32c-.2,.04-.64-.05-.87-.14-6.96-2.02-15.32-.39-20.4,4.84-2.66,2.67-4.1,6.09-4.73,9.79-.64,3.81-1.43,7.62-.47,11.03,.96,3.57,3.5,6.34,6.44,8.54,3.83,2.99,8.16,5.11,12.59,7.11,2.75,1.47,4.11,4.66,5.07,7.35,1.72,4.15,5.62,6.98,9.66,8.73-5.88,.11-11.79-.13-17.61-1.18-5.22-1.01-10.65-1.48-15.24-4.62-2.32-1.67-4.37-4.14-4.71-7.08-.28-2.69-.55-4.88-1.56-7.33-1.69-5.34-5.66-7.8-8.82-12.51-2.95-5.21-1.13-11.43,1.43-16.21,3.58-6.77,7.53-16.54,16.78-15.86,7.92,.91,15.77,3.14,22.43,7.53h0Zm-.25-.11c-.58-.17-1.2-.37-1.72-.63-4.13-1.81-8.5-3.14-12.93-3.92-8.57-1.89-14.36-1.43-18.35,7.29-1.8,3.9-5.38,9.66-5.9,13.85-1,5.58,2.3,8.46,5.84,12.45,3.39,4.27,5.25,9.75,5.48,15.1,.62,4.86,5.85,7.47,10.28,8.7,7.41,2.1,15.12,3.68,22.88,3.61l-.2,.87c-3.52-1.83-6.65-4.67-8.3-8.35-1.36-3.89-3.34-6.62-7.5-7.67-7.22-3.02-15.66-6.81-18.14-15.03-1.17-4.05-.19-8.15,.53-12.12,.72-3.93,2.56-7.97,5.64-10.74,5.84-5.37,14.64-6.72,21.87-3.78l.32,.14c.05,.02,.06,.14,.18,.22h0Z" style="fill:#050001;"/></g><g><path d="M51.32,62.46c.85-.52,2.23-1.18,3.91-1.13,3.12,.09,5.29,2.55,7.82,5.42,1.7,1.93,2.85,3.24,3.53,5.42,.26,.83,.35,1.48,.38,6.43,.02,4.03,.02,6.06-.25,6.68-1.38,3.11-5.14,4.29-7.94,5.17-4.48,1.41-6.06,.42-9.84,2.02-2.48,1.05-4.23,2.5-5.3,3.53,.75,.69,1.92,1.63,3.53,2.4,3.45,1.64,6.21,1.19,12.36,.88,9.4-.47,8.75-1.7,10.29-2.72,2.92-1.93,4.4-3.61,5.73-10.9,1.2-6.58,1.81-9.87,.38-13.87-1.16-3.25-3-5.2-6.56-8.95-3.18-3.36-4.92-5.14-7.69-5.42-2.99-.3-5.67,1.29-6.68,1.89-1.75,1.04-2.94,2.27-3.66,3.15Z" style="fill:#fff;"/><path d="M51.42,62.37c.05-.11-.07-.13,.02-.16,2.1-1.54,5.01-1.74,7.29-.43,2.34,1.37,3.97,3.37,5.71,5.15,1.75,1.77,3.5,4.25,3.57,7.16,.14,3.53,.28,6.97,.07,10.47-.81,4.83-6.54,6.15-10.58,7.11-2.6,.57-5.13,.17-7.39,.92-2.31,.71-4.43,2.03-6.19,3.72v-.6c2.62,2.47,6.1,3.62,9.69,3.25,4.69-.58,9.87-.26,14.16-2.19,.82-.83,2.16-1.7,3.01-2.49,2.99-3.08,3.01-7.64,3.9-11.96,.6-3.57,1.06-6.95-.07-10.06-1.01-3.12-3.45-5.71-5.89-8.43-2.48-2.61-4.64-5.76-8.03-5.68-3.31-.01-6.77,2.03-9.25,4.23h0Zm-.2,.18c.1-.53,.58-.87,.85-1.27,3.34-3.9,9.78-6.61,14.21-2.84,4.16,3.85,8.77,7.47,10.94,12.88,1.46,3.65,.97,7.79,.29,11.49-.98,4.71-1.56,11.17-6.24,14.23-1.29,.79-2.24,1.91-3.75,2.31-2.78,.78-5.61,.71-8.41,.78-5.46,.24-11.62,.45-15.76-3.82l-.32-.3,.31-.3c1.83-1.77,4.01-3.2,6.43-4.11,2.36-.93,4.98-.83,7.34-1.54,3.27-1.17,8.63-2.51,8.61-6.6,.03-3.05,.09-6.25,.01-9.25,0-1.22-.25-2.12-.75-3.16-2.71-4.05-7.07-11.22-12.75-8.84-.25,.07-.8,.41-1.02,.34h0Z" style="fill:#050001;"/></g><g><path d="M51.07,66.67c-.46-.11-8.01-1.77-13.01,3.35-3.72,3.81-3.56,8.87-3.5,10.73,.06,1.85,.17,5.41,2.85,8.54,2.54,2.97,5.87,3.76,7.04,3.99-.9,.56-2.48,1.35-4.54,1.47-3.17,.18-5.48-1.36-7.48-2.7-2.68-1.79-5.46-3.64-6.13-6.74-.6-2.75,1.15-3.28,2.02-8.39,.89-5.21-.58-6.71,.98-9.53,1.56-2.84,4.51-3.98,5.58-4.4,7.62-2.96,15.52,3.15,16.19,3.68Z" style="fill:#fff;"/><path d="M51.19,66.73c-.11,.08-.34,.06-.48,.04-3.29-.22-6.85,.33-9.62,2.11-6.71,3.92-7.44,17.21-1.26,21.89,1.62,1.28,3.67,1.98,5.71,2.3l-.87,.55c-3.62,2.46-8.58,1.89-12.1-.52-2.46-1.47-5.05-2.85-6.62-5.48-.83-1.42-1.28-3.17-.83-4.83,.5-1.6,1.04-2.61,1.36-3.86,.66-2.52,.82-4.97,.64-7.63-.15-1.36,.14-3.34,1.01-4.69,3.37-5.36,10.57-6.58,15.96-4.43,2.48,.9,4.72,2.29,6.68,4.02,.14,.13,.39,.35,.42,.52h0Zm-.24-.12c-.11-.02-.16,.05-.18,.03-.13-.07-.52-.3-.66-.38-5.82-3.64-15.51-4.88-19.54,1.74-1.17,2.17-.16,4.97-.6,7.46-.21,2.64-1.41,5.8-2.4,8.02-.81,3.69,3.26,6.27,5.88,8.28,3.04,2.56,7.3,3.48,10.79,1.17l.14,.75c-3.6-.69-7.13-2.71-9.12-6.08-5.75-10.8,1.46-24.39,14.53-21.43,.19,.06,.81,.2,1,.26l.16,.05s-.04,.07,.01,.13h0Z" style="fill:#050001;"/></g><g><path d="M53.48,68.69c-1.52-.2-4.83-.4-8.32,1.31-1.45,.71-4.61,2.26-5.91,5.7-.91,2.39-.47,4.53,0,6.79,.65,3.13,1.29,7.29,3.5,7.89,1.95,.52,2.81-2.31,7.23-3.51,2.42-.66,2.73,.04,5.69-.66,2.54-.59,5.05-1.18,6.35-3.07,2.16-3.13-.24-8.08-1.53-10.73-2.04-4.19-5.01-7.09-5.48-6.79-.42,.27,1.62,2.8,1.53,6.79-.03,1.21-.09,4.26-1.97,5.48-1.82,1.18-3.53-.53-5.26,.66-1.88,1.29-.94,4.04-2.63,4.82-1.24,.57-3.11-.28-3.94-1.53-1.36-2.05,.23-4.97,1.53-6.35,1.98-2.11,4.77-2.21,5.7-2.19,1.02,.02,1.85,.24,2.41,.44" style="fill:#fff;"/><path d="M53.47,68.83c-4.65-.15-9.71,1.89-12.36,5.61-2.55,3.82-.31,9.27,.62,13.24,.37,1.04,.95,1.81,1.52,1.81,.54,.09,1.68-.93,2.75-1.57,1.1-.7,2.35-1.21,3.61-1.51,2.46-.6,4.93-.04,7.37-.93,3.9-.78,6.25-3.23,4.94-7.33-1.4-4.12-3.69-8.47-7.09-11.3,0,0-.06-.03-.02-.01,.14,0-.02,.12,.67,0,.31-.06,.84-.64,.77-1.11-.02-.16,0-.07,0-.08,1.04,2.21,1.82,4.69,1.71,7.16,.11,4.22-2.17,8.05-6.93,6.75-1.5-.03-1.41,.72-1.97,2.59-.18,.64-.59,1.73-1.63,2.26-.97,.51-1.95,.41-2.72,.19-5.43-1.74-3.68-8.11,.19-10.51,2.26-1.39,5.18-1.52,7.54-.46l-.09,.26c-2.36-.58-4.92-.04-6.67,1.33-1.65,1.31-2.81,3.94-2.29,5.54,.25,.91,1.91,1.97,2.81,1.49,.48-.56,.38-1.75,.78-2.7,.26-.75,.8-1.62,1.59-2.14,.77-.55,1.87-.76,2.64-.68,1.6,.1,2.5,.66,3.32-.96,1.19-2.89,.53-6.5-.74-9.33-.1-.33-.18-.77-.01-1.19,.65-1.4,2.16-.87,2.87-.17,3.57,3.39,5.65,8,6.71,12.77,1.65,8.9-7.49,8.48-13.45,9.65-3.18,.61-5.69,6.08-9.02,2.94-1.49-1.55-1.95-3.69-2.41-5.6-.91-3.77-1.8-8.26,.9-11.58,3.37-4.18,9.1-5.82,14.11-4.67l-.04,.27h0Z" style="fill:#050001;"/></g></g></svg>